<?xml version="1.0" standalone="no"?>
<!DOCTYPE svg PUBLIC "-//W3C//DTD SVG 20010904//EN"
 "http://www.w3.org/TR/2001/REC-SVG-20010904/DTD/svg10.dtd">
<svg version="1.0" xmlns="http://www.w3.org/2000/svg"
 width="830.000000pt" height="830.000000pt" viewBox="0 0 830.000000 830.000000"
 preserveAspectRatio="xMidYMid meet">
<metadata>
Created by potrace 1.11, written by Peter Selinger 2001-2013
</metadata>
<g transform="translate(0.000000,830.000000) scale(0.100000,-0.100000)"
fill="#000000" stroke="none">
<path d="M2214 6243 c1 -830 0 -1515 -2 -1523 -3 -14 -109 -16 -960 -15 -526
1 -961 -1 -967 -2 -7 -2 -10 -656 -9 -1938 0 -1361 -3 -1935 -10 -1936 -6 0
-45 -1 -86 -2 -82 -1 -121 -15 -152 -58 -28 -37 -32 -85 -13 -135 13 -34 25
-47 59 -63 l42 -21 4037 0 c3713 0 4039 1 4071 16 19 10 43 33 56 56 20 35 22
64 11 126 -2 9 -75 72 -84 73 -18 2 -118 7 -153 8 l-31 1 1 1245 1 1245 -963
0 c-530 0 -966 1 -970 4 -4 2 -7 563 -6 1245 l1 1241 -969 0 -968 0 0 970 0
970 -968 0 -969 0 1 -1507z"/>
</g>
</svg>
